<svg width="74" height="108" viewBox="0 0 74 108" fill="none" xmlns="http://www.w3.org/2000/svg">
<path d="M48.1484 22.4509C45.6582 19.4724 42.0938 17.9832 37.4551 17.9832C31.1074 17.9832 26.7861 20.3513 24.4912 25.0876C23.1729 27.822 22.3916 32.1677 22.1475 38.1248H1.85938C2.20117 29.0916 3.83691 21.7917 6.7666 16.2253C12.333 5.62964 22.2207 0.331787 36.4297 0.331787C47.6602 0.331787 56.5957 3.45679 63.2363 9.70679C69.877 15.908 73.1973 24.1355 73.1973 34.3894C73.1973 42.2507 70.8535 49.2332 66.166 55.3367C63.0898 59.3894 58.0361 63.906 51.0049 68.8865L42.6553 74.8191C37.4307 78.53 33.8418 81.2156 31.8887 82.8757C29.9844 84.5359 28.373 86.4646 27.0547 88.6619H73.417V107.046H0.6875C0.882812 99.4285 2.51855 92.4705 5.59473 86.1716C8.57324 79.0916 15.6045 71.5964 26.6885 63.6863C36.3076 56.8015 42.5332 51.8699 45.3652 48.8914C49.7109 44.2527 51.8838 39.1746 51.8838 33.657C51.8838 29.1648 50.6387 25.4294 48.1484 22.4509Z" fill="#E4D9FE"/>
</svg>
