<svg width="75" height="110" viewBox="0 0 75 110" fill="none" xmlns="http://www.w3.org/2000/svg">
<path d="M25.7109 21.9658C23.3672 25.0908 22.2441 29.2656 22.3418 34.4902H2.85938C3.05469 29.2168 3.95801 24.2119 5.56934 19.4756C7.27832 15.3252 9.96387 11.4922 13.626 7.97656C16.3604 5.48633 19.6074 3.58203 23.3672 2.26367C27.127 0.945312 31.7412 0.286133 37.21 0.286133C47.3662 0.286133 55.5449 2.92285 61.7461 8.19629C67.9961 13.4209 71.1211 20.4521 71.1211 29.29C71.1211 35.54 69.2656 40.8135 65.5547 45.1104C63.2109 47.7959 60.7695 49.627 58.2305 50.6035C60.1348 50.6035 62.8691 52.2393 66.4336 55.5107C71.7559 60.4424 74.417 67.1807 74.417 75.7256C74.417 84.71 71.292 92.6201 65.042 99.4561C58.8408 106.243 49.6367 109.637 37.4297 109.637C22.3906 109.637 11.9414 104.729 6.08203 94.915C3.00586 89.6904 1.29688 82.8545 0.955078 74.4072H21.4629C21.4629 78.6553 22.1465 82.1709 23.5137 84.9541C26.0527 90.0811 30.667 92.6445 37.3564 92.6445C41.458 92.6445 45.0225 91.2529 48.0498 88.4697C51.126 85.6377 52.6641 81.585 52.6641 76.3115C52.6641 69.3291 49.832 64.666 44.168 62.3223C40.9453 61.0039 35.8672 60.3447 28.9336 60.3447V45.4033C35.7207 45.3057 40.457 44.6465 43.1426 43.4258C47.7812 41.375 50.1006 37.2246 50.1006 30.9746C50.1006 26.9219 48.9043 23.626 46.5117 21.0869C44.168 18.5479 40.8477 17.2783 36.5508 17.2783C31.6191 17.2783 28.0059 18.8408 25.7109 21.9658Z" fill="#FFA100" fill-opacity="0.25"/>
</svg>
