<svg width="75" height="108" viewBox="0 0 75 108" fill="none" xmlns="http://www.w3.org/2000/svg">
<path d="M36.9902 52.1431C34.4512 52.1431 32.2539 52.4604 30.3984 53.0952C27.127 54.2671 24.6611 56.4399 23.001 59.6138L4.25098 58.7349L11.7217 0.0678711H70.2422V17.7925H26.8096L23.001 41.0103C26.2236 38.9106 28.7383 37.519 30.5449 36.8354C33.5723 35.7124 37.2588 35.1509 41.6045 35.1509C50.3936 35.1509 58.0596 38.105 64.6025 44.0132C71.1455 49.9214 74.417 58.5151 74.417 69.7944C74.417 79.6089 71.2676 88.3735 64.9688 96.0884C58.6699 103.803 49.2461 107.661 36.6973 107.661C26.5898 107.661 18.2891 104.951 11.7949 99.5308C5.30078 94.1108 1.6875 86.4204 0.955078 76.4595H21.7559C22.5859 81.0005 24.1729 84.5161 26.5166 87.0063C28.8604 89.4478 32.2783 90.6685 36.7705 90.6685C41.9463 90.6685 45.877 88.8618 48.5625 85.2485C51.2969 81.5864 52.6641 76.9966 52.6641 71.479C52.6641 66.0591 51.3945 61.4937 48.8555 57.7827C46.3164 54.0229 42.3613 52.1431 36.9902 52.1431Z" fill="#FFA100" fill-opacity="0.25"/>
</svg>
