<svg width="645" height="27" viewBox="0 0 645 27" fill="none" xmlns="http://www.w3.org/2000/svg">
<path d="M2 19.9996C21.4633 19.0317 41.6628 16.8125 61.0184 14.9853C93.1008 11.9567 126.142 11.3193 158.449 9.27457C188.75 7.35673 219.056 6.00532 249.377 4.32989C274.764 2.92715 300.274 3.93851 325.701 2.72809C369.533 0.64151 413.665 3.7031 457.442 3.7031C496.688 3.7031 540.099 1.97959 578.18 9.34421C589.504 11.5343 595.077 15.5678 594.385 23.7604C594.163 26.3873 577.011 24.603 578.28 20.6264C579.637 16.3749 594.878 14.9853 599.787 14.9853C614.193 14.9853 628.657 12.4782 643 12.4782" stroke="#FFA100" stroke-width="4" stroke-linecap="round"/>
</svg>
